<?xml version="1.0" encoding="UTF-8"?><svg id="Layer_1" xmlns="http://www.w3.org/2000/svg" xmlns:xlink="http://www.w3.org/1999/xlink" viewBox="0 0 470.01 562.53"><defs><style>.cls-1{fill:#8c9d74;}.cls-2{fill:#899a7d;}.cls-3{fill:url(#linear-gradient);}</style><linearGradient id="linear-gradient" x1="-1055.19" y1="-186.03" x2="-845.63" y2="-98.77" gradientTransform="translate(2464.25 590.59) scale(2.37)" gradientUnits="userSpaceOnUse"><stop offset=".18" stop-color="#2e3440"/><stop offset=".33" stop-color="#2a363b"/><stop offset=".91" stop-color="#1f3d2b"/></linearGradient></defs><path class="cls-3" d="M469.49,294.64c.68,25.77-1.63,50.19-7.76,75.83-10.07,33.21-24.82,63.36-46.77,89.95-27.59,32.92-60.29,57.66-99.39,76.16-26.52,12.13-52.95,20.03-80.46,25.95l-25.78-6.32-22.56-7.44c-29.93-9.45-57.21-23.72-83.1-42.34-15.36-11.83-28.75-24.13-42.44-38.22-9.01-10.77-17-20.95-24.7-32.06-16.98-26.82-28.31-55.28-33.37-87.22l-2.69-23.7L0,268.39l.22-42.68-.04-33.19-.06-37.97-.13-104.24,52.69-10.91L192.19,9.47,235.49,0l132.05,29.92,90.72,19.76,11.73,3.01-.37,21.4-.04,139.51-.1,81.03ZM229.69,34.15l-6.46,1.13-47.62,9.9-49.97,10.7-1.27,33.34,5.4,3.97,36.72-1.17,28.26,6.78,15.49,3.79s6.96-8.86,13.04-11.76,26.17-1.26,32.14,11.6c6.81,12.65-3.09,29.42-6.72,32.56s-23.07,5.1-32.57-5.11l-11.48-4.22-40.98-9.52-37.49,2.83-1.43,12-.07,90.37c8.16,4.53,14.93,10.91,20.14,19.02,5.6,13.7,4.46,27.61-4.15,38.66-8.75,10.77-23.47,16.15-38.44,12.01-14.62-4.86-24.59-16.9-27-32.15.08-16.25,8.57-29.86,23.24-37.46l-.33-78.67-.04-83.08-38.4,9.58-27.64,7.78-.28,81.85-.04,8.01.02,10.99-.04,7.95v22.9s.02,10.3.02,10.3l.21,81.06,18.7,15.49c16.92,11.42,33.22,21.65,50.73,32.01l35.3,15.55,34.73-37.61,9.74-7.03-1.29-31.19-.17-71.04c1.42-19.92,14.44-35.38,34.21-39.88,15.89-3.81,30.9-7.63,45.17-12.48l4.51-.65,33.43-11.01c7-11.23,5.94-17.5,8.61-21.58s14.9-20.92,36.7-12.85c10.74,2.24,22.62,11.07,26.53,24.92,5.65,18.65-2.39,36.45-20.51,44.84l.53,44.26,59.34-10.88,29.88-6.52v-93.02l-.71-43.84-15.27-4.02-92.36-21.05-66.28-15.17-19.41-4.14c-4.65-.56-8.81-.63-14.37.98ZM242.64,114.14c0-4.64-3.76-8.4-8.4-8.4s-8.4,3.76-8.4,8.4,3.76,8.4,8.4,8.4,8.4-3.76,8.4-8.4ZM355.59,153.09c0-11.56-9.37-20.94-20.93-20.94s-20.93,9.37-20.93,20.94,9.37,20.94,20.93,20.94,20.93-9.37,20.93-20.94ZM171.95,374.83l15.17,4,63.98,12.51,1.75-7.37-.05-130.14,8.09-4.07,52.16-9.97,9.93-1.85-.53-48.76-17.57-11.8-15.2,4.15-68.9,20.38c-10.58,1.67-16.1,11.58-14.35,21.65l.38,81.15,9.2,1.28c10.31,2.35,15.85,11.62,12.69,21.2-1.89,10.48-11.18,16.54-22.28,15.37l-12.16-2.18-26.63,27.15-.49,5.15,4.82,2.15ZM133.38,256.43c0-11.81-9.57-21.39-21.38-21.39s-21.38,9.58-21.38,21.39,9.57,21.39,21.38,21.39,21.38-9.58,21.38-21.39ZM349.08,258.91l-3.02,1.99,1.2,73.84.99,4.08s.42,1.8,2.96,6.8,12.22,1.76,12.22,1.76l35.87-27.8c9.92-8.21,21.02-14.53,32.86-19.91l5.67-3.19-.88-54.15-38.45,7.25-49.42,9.32ZM311.07,266.61l-30.1,5.85-.67,107.31.13,54.5-.24,33.21.91,49.31c35.75-13.42,64.59-32.33,90.49-56.8l21.43-23.94c23.88-31.18,40.67-65.87,42.52-106.54-5.95,2.64-11.43,5.51-16.36,8.59,0,0-30.27,22.59-34.63,26.15s-18.83,7.49-28.47,9.54c-17.87-1.52-29.27-12.41-33.3-29.79l-.23-52.24.19-27.36-11.67,2.23ZM213.57,322.82c0-2.85-2.31-5.16-5.15-5.16s-5.15,2.31-5.15,5.16,2.31,5.16,5.15,5.16,5.15-2.31,5.15-5.16ZM89.31,370.91l-30.38-18.35-25.04-16.4c3.89,42.03,23.07,76.75,49.11,107.64l6.23,6.44.08-79.35ZM123.15,481.67c26.07,17.41,52.66,31.62,82.98,40.98l31.01,7.58s6.87,2.19,13.85-3.5,2.92-.37,2.92-.37l-1.7-59.47.43-48.68-19.53-4.03c-38.4-5.78-75.1-14.9-111.92-29.02l-4.37-.67-2.65.48-.08,87.59,9.04,9.12Z"/><ellipse class="cls-2" cx="112.01" cy="256.43" rx="11.58" ry="11.59"/><ellipse class="cls-1" cx="334.66" cy="153.09" rx="11.72" ry="11.72"/></svg>